<?xml version="1.0" encoding="UTF-8"?>
<svg version="1.1" xmlns="http://www.w3.org/2000/svg" width="1478" height="184">
<path d="M0 0 C1.83396397 0.00056489 3.66792838 0.00024604 5.50189209 -0.00088501 C10.45572749 -0.0014565 15.40946513 0.01026469 20.36327791 0.02426291 C25.54958374 0.03680437 30.73589204 0.03794345 35.92221069 0.04031372 C45.73212211 0.04651847 55.54198871 0.06291566 65.35188043 0.0830127 C76.52480762 0.10540303 87.69773699 0.116373 98.87068105 0.12640357 C121.84398795 0.14728279 144.81725513 0.18243917 167.79052734 0.22705078 C167.80851916 1.82979271 167.82136529 3.43259297 167.83203125 5.03540039 C167.83973541 5.92795029 167.84743958 6.82050018 167.8553772 7.74009705 C167.61469769 16.97001454 161.91267316 25.85172135 155.75537109 32.38720703 C147.1479368 40.5088602 137.14428524 45.28922341 125.22802734 45.35205078 C124.09365234 45.31080078 122.95927734 45.26955078 121.79052734 45.22705078 C121.88333984 46.65017578 121.88333984 46.65017578 121.97802734 48.10205078 C121.91313455 58.85262366 116.3191454 68.60330288 109.29052734 76.41455078 C102.02111369 83.34585217 91.6192868 88.42216604 81.54052734 88.28955078 C80.20248047 88.27601563 80.20248047 88.27601563 78.83740234 88.26220703 C78.16193359 88.25060547 77.48646484 88.23900391 76.79052734 88.22705078 C76.77634766 88.88189453 76.76216797 89.53673828 76.74755859 90.21142578 C76.14557582 101.73044743 71.9517028 111.97060869 63.79052734 120.22705078 C53.69941907 128.78920325 43.10730252 132.40119342 29.96975708 132.3473053 C28.81663082 132.34858694 28.81663082 132.34858694 27.64020908 132.34989446 C25.0745685 132.35153633 22.50899389 132.34604913 19.94335938 132.34057617 C18.10013328 132.340294 16.25690706 132.34045263 14.41368103 132.34101868 C9.41625196 132.34130546 4.41884692 132.3354279 -0.57857656 132.32844472 C-5.80361401 132.32219143 -11.02865202 132.32160582 -16.25369263 132.32041931 C-26.14517779 132.31731183 -36.03665189 132.30910628 -45.92813218 132.29906982 C-57.19044974 132.2878906 -68.45276783 132.28239367 -79.71508956 132.27737439 C-102.87989005 132.2669232 -126.04468074 132.24933502 -149.20947266 132.22705078 C-149.32006915 119.97511714 -145.33280292 109.08087041 -137.06884766 99.92236328 C-127.38460419 91.09261189 -116.83855208 88.01617037 -104.20947266 86.22705078 C-104.13470703 85.50001953 -104.05994141 84.77298828 -103.98291016 84.02392578 C-102.47915988 72.52465898 -98.00374502 62.04418177 -89.20947266 54.22705078 C-79.05919057 46.48160476 -69.89308799 43.57599068 -57.20947266 44.22705078 C-57.29197266 42.96892578 -57.37447266 41.71080078 -57.45947266 40.41455078 C-57.42678929 30.00489808 -52.17901888 20.50182825 -45.17431641 13.06689453 C-31.83853234 0.48374731 -17.43796043 -0.07544897 0 0 Z " fill="#16274F" transform="translate(149.20947265625,49.77294921875)"/>
<path d="M0 0 C0.92659424 0.00491455 1.85318848 0.0098291 2.80786133 0.01489258 C19.18099924 0.29429766 31.24708027 5.70778452 42.75 17.3125 C44.52022263 19.26173391 46.14334652 21.22385048 47.75 23.3125 C48.10191406 22.80460937 48.45382812 22.29671875 48.81640625 21.7734375 C56.61515984 10.89997949 67.36644303 3.68494164 80.57836914 0.66552734 C84.70922527 -0.005998 88.82320056 -0.026169 93 0 C93.92659424 0.00491455 94.85318848 0.0098291 95.80786133 0.01489258 C110.66659731 0.26845463 122.64603621 4.64063779 133.4921875 14.92578125 C147.33616187 29.56015554 148.05484284 47.07565327 147.9453125 66.1015625 C147.9415767 68.01540987 147.93873241 69.92925916 147.93673706 71.84310913 C147.92914527 76.85062046 147.9095356 81.85801352 147.8873291 86.86547852 C147.86677413 91.98712566 147.85771481 97.10879214 147.84765625 102.23046875 C147.82628503 112.2578725 147.79113976 122.28515785 147.75 132.3125 C138.51 132.3125 129.27 132.3125 119.75 132.3125 C119.72812622 128.76375122 119.72812622 128.76375122 119.70581055 125.14331055 C119.65528256 117.29218489 119.58865622 109.44125379 119.51428509 101.59031963 C119.46971856 96.83423777 119.43043284 92.07823887 119.40356445 87.32202148 C119.37739381 82.72474368 119.33689596 78.1277875 119.28681374 73.53071022 C119.2702375 71.78424926 119.25866606 70.03773279 119.25238609 68.29120445 C119.20063571 55.21178031 118.95625255 42.61769711 109.75 32.3125 C101.24235716 25.24008959 91.47597397 24.3854191 80.75 25.3125 C72.37119788 27.09272895 65.28117399 31.05263188 60.44140625 38.26171875 C56.65465577 45.32199711 55.4548968 52.65804746 55.43115234 60.56445312 C55.42110672 61.34590698 55.4110611 62.12736084 55.40071106 62.93249512 C55.37010089 65.48624003 55.35290632 68.03988121 55.3359375 70.59375 C55.31720796 72.37594481 55.29763324 74.15813093 55.2772522 75.94030762 C55.22611354 80.60907847 55.18639052 85.27787802 55.14910889 89.94677734 C55.1089542 94.71979768 55.05791437 99.49270055 55.0078125 104.265625 C54.91126965 113.61450867 54.8278034 122.96344158 54.75 132.3125 C45.51 132.3125 36.27 132.3125 26.75 132.3125 C26.73541748 129.9111377 26.72083496 127.50977539 26.70581055 125.03564453 C26.65531613 117.0727544 26.58869533 109.11005677 26.51428509 101.14735603 C26.46969042 96.32286395 26.43041063 91.4984542 26.40356445 86.67382812 C26.37742224 82.01171805 26.33694368 77.34992665 26.28681374 72.68801498 C26.27021852 70.9156073 26.25865875 69.14314459 26.25238609 67.37067032 C26.20168147 54.35185547 25.77875826 42.60203082 16.75 32.3125 C8.25425464 25.2327122 -1.53344142 24.3862329 -12.25 25.3125 C-20.64323354 27.09579517 -27.65789856 31.05838147 -32.55859375 38.2265625 C-38.18195052 48.56694748 -37.58707093 60.06927324 -37.6640625 71.47265625 C-37.68279717 73.23100164 -37.70237226 74.98933826 -37.7227478 76.74766541 C-37.77383229 81.34901735 -37.81358397 85.95039836 -37.85089111 90.55187988 C-37.89108015 95.25796561 -37.94210414 99.96393288 -37.9921875 104.66992188 C-38.08866603 113.88403919 -38.1721568 123.09820639 -38.25 132.3125 C-47.49 132.3125 -56.73 132.3125 -66.25 132.3125 C-66.25 89.4125 -66.25 46.5125 -66.25 2.3125 C-57.01 2.3125 -47.77 2.3125 -38.25 2.3125 C-37.92 6.2725 -37.59 10.2325 -37.25 14.3125 C-36.3425 13.44625 -35.435 12.58 -34.5 11.6875 C-24.48495324 3.11478249 -12.89756889 -0.08080743 0 0 Z " fill="#040707" transform="translate(435.25,49.6875)"/>
<path d="M0 0 C9.24 0 18.48 0 28 0 C28 57.42 28 114.84 28 174 C18.76 174 9.52 174 0 174 C-0.33 168.39 -0.66 162.78 -1 157 C-2.11375 158.19625 -3.2275 159.3925 -4.375 160.625 C-15.82407166 171.9937273 -30.60694422 176.29808654 -46.47387695 176.31469727 C-62.18083379 176.01506122 -77.41155379 170.26712341 -88.875 159.3515625 C-103.16377549 143.53935139 -108.91928035 124.44337797 -108.28515625 103.36328125 C-107.28657197 84.29826 -99.274269 68.39067113 -85.66796875 55.2578125 C-71.15995528 42.98016713 -53.2549332 40.76623257 -35 42 C-21.89602783 43.74240617 -10.83639188 50.56880696 -1 59 C-0.67 39.53 -0.34 20.06 0 0 Z M-71.27734375 81.7109375 C-78.9614823 91.92160686 -80.01406306 103.50167283 -79 116 C-76.75876525 127.53726523 -71.28926957 137.63834566 -62 145 C-51.71245123 151.44253469 -41.9468071 153.0577524 -30 151 C-26.77881385 149.98707857 -23.93241801 148.66369838 -21 147 C-19.989375 146.443125 -18.97875 145.88625 -17.9375 145.3125 C-8.29301056 137.72002959 -2.31136202 128.29193661 -0.58984375 116.09375 C0.88456892 101.85804149 -1.87218525 89.60058441 -10.75 78.125 C-17.22029327 71.19857639 -26.70323571 66.57099122 -36.1015625 65.71875 C-50.9827099 65.30054445 -61.70726726 70.3333913 -71.27734375 81.7109375 Z " fill="#040707" transform="translate(933,8)"/>
<path d="M0 0 C2.47775703 2.17686 4.81028865 4.42162673 7.10546875 6.7890625 C7.6778125 7.35238281 8.25015625 7.91570312 8.83984375 8.49609375 C19.82849174 20.13613067 23.30700823 36.50282998 23.23046875 51.9765625 C23.23433594 52.76998047 23.23820312 53.56339844 23.2421875 54.38085938 C23.24025391 55.53231445 23.24025391 55.53231445 23.23828125 56.70703125 C23.23715332 57.39563232 23.23602539 58.0842334 23.23486328 58.79370117 C23.10546875 60.7890625 23.10546875 60.7890625 22.10546875 64.7890625 C-10.89453125 64.7890625 -43.89453125 64.7890625 -77.89453125 64.7890625 C-74.80485465 77.14776889 -71.43395606 85.67679331 -60.89453125 92.7890625 C-51.58867429 97.9966447 -40.36609142 98.12326967 -30.05078125 96.28125 C-25.11139599 94.80958384 -20.58000405 92.41681618 -16.89453125 88.7890625 C-16.13622105 87.24557084 -15.38818219 85.69700626 -14.6484375 84.14453125 C-12.49302361 80.83283983 -11.51165511 79.92606903 -7.59985352 79.05761719 C-3.53730842 78.90216725 0.42569953 79.00223811 4.48046875 79.2265625 C5.89831066 79.27175074 7.31629062 79.31280788 8.734375 79.34960938 C12.19429303 79.44836459 15.64899986 79.60338442 19.10546875 79.7890625 C17.28848166 91.7228035 9.84649452 101.33353467 0.5859375 108.828125 C-15.50958169 120.44854592 -34.11456728 123.85084792 -53.69140625 121.29296875 C-70.73552445 117.94095884 -85.57723195 110.08616099 -95.89453125 95.7890625 C-97.4715449 93.22080287 -98.89573714 90.59594336 -100.26953125 87.9140625 C-100.59139404 87.29080078 -100.91325684 86.66753906 -101.24487305 86.02539062 C-106.1208837 75.90454122 -107.43299423 65.60792989 -107.33203125 54.4765625 C-107.32373291 53.29175293 -107.31543457 52.10694336 -107.30688477 50.88623047 C-106.96726627 33.25265784 -101.66924053 17.94504071 -89.2734375 5.00390625 C-65.88892805 -16.76787841 -25.63942462 -19.58422987 0 0 Z M-70.671875 23.92578125 C-74.65714545 29.50905746 -77.89453125 35.81346795 -77.89453125 42.7890625 C-54.13453125 42.7890625 -30.37453125 42.7890625 -5.89453125 42.7890625 C-8.23394355 29.92229488 -11.4324187 23.25490547 -21.89453125 15.7890625 C-26.95051007 13.1468567 -32.1877871 11.27474285 -37.89453125 10.7890625 C-38.52359375 10.72589844 -39.15265625 10.66273437 -39.80078125 10.59765625 C-51.78871634 9.92442077 -63.02937041 14.73797902 -70.671875 23.92578125 Z " fill="#040707" transform="translate(1454.89453125,62.2109375)"/>
<path d="M0 0 C1.15312626 0.00484369 1.15312626 0.00484369 2.329548 0.00978523 C4.89521634 0.02181082 7.46077509 0.04119369 10.02639771 0.06056213 C11.86962143 0.07071018 13.71284771 0.08040328 15.55607605 0.0896759 C20.55353047 0.11610427 25.55092529 0.14889447 30.54833364 0.1828258 C35.77335126 0.21722098 40.99840075 0.24576685 46.22344971 0.27493286 C56.11495734 0.33103582 66.00642505 0.3924002 75.89788926 0.4556542 C87.16018493 0.52741827 98.42251253 0.59331794 109.68484664 0.65872467 C132.84968243 0.79338733 156.01446838 0.93541571 179.17922974 1.08229065 C179.03622434 2.84547499 178.88830647 4.60826136 178.73831177 6.37086487 C178.61554367 7.84340225 178.61554367 7.84340225 178.49029541 9.34568787 C177.35503965 19.33310963 171.4159992 28.63897111 163.85891724 35.05104065 C154.07513026 42.2892028 144.47255021 45.25223524 132.35845947 45.20254517 C131.20533321 45.2038268 131.20533321 45.2038268 130.02891147 45.20513433 C127.4632709 45.2067762 124.89769628 45.201289 122.33206177 45.19581604 C120.48883567 45.19553386 118.64560946 45.1956925 116.80238342 45.19625854 C111.80495436 45.19654533 106.80754931 45.19066777 101.81012583 45.18368459 C96.58508838 45.17743129 91.36005038 45.17684568 86.13500977 45.17565918 C76.24352461 45.1725517 66.35205051 45.16434615 56.46057022 45.15430969 C45.19825265 45.14313047 33.93593456 45.13763354 22.67361283 45.13261425 C-0.49118766 45.12216307 -23.65597834 45.10457489 -46.82077026 45.08229065 C-46.93136676 32.83035701 -42.94410053 21.93611028 -34.68014526 12.77760315 C-24.70786407 3.68522912 -13.31032939 -0.12752686 0 0 Z " fill="#34A4DC" transform="translate(46.820770263671875,136.91770935058594)"/>
<path d="M0 0 C1.87337226 0.00084729 3.74674551 0.00036914 5.62011719 -0.00132751 C10.68143539 -0.00218492 15.74253839 0.01539945 20.80380678 0.03639436 C26.10221535 0.05520379 31.40062936 0.05691496 36.69906616 0.06047058 C46.72149923 0.06977853 56.74383361 0.09437537 66.76622331 0.12451905 C78.18097623 0.15810201 89.59573397 0.17455886 101.01052403 0.18960536 C124.48151725 0.22092604 147.95242301 0.27366218 171.42333984 0.34057617 C171.51530527 13.0172846 167.49165829 23.00568372 158.92333984 32.52807617 C150.6741964 40.39353852 139.94549742 44.50564413 128.69122314 44.46083069 C127.90784694 44.46168511 127.12447074 44.46253954 126.31735587 44.46341985 C123.69022576 44.46506806 121.06315939 44.45956404 118.43603516 44.45410156 C116.55369569 44.45381952 114.67135612 44.45397775 112.78901672 44.45454407 C107.67577069 44.45483139 102.56254804 44.44894519 97.44930744 44.44197011 C92.10681082 44.43572572 86.76431368 44.43513191 81.42181396 44.4339447 C71.30360014 44.4308346 61.1853971 44.42262551 51.06718802 44.41259521 C39.54857343 44.40142414 28.02995833 44.39592111 16.51133966 44.39089978 C-7.18466626 44.38044265 -30.8806626 44.36284939 -54.57666016 44.34057617 C-54.31055988 42.13866742 -54.03043874 39.93845093 -53.74462891 37.73901367 C-53.51296021 35.90089111 -53.51296021 35.90089111 -53.27661133 34.02563477 C-51.31945053 23.72169856 -45.31300841 14.71785115 -37.03759766 8.40307617 C-25.11965302 0.34587416 -13.96466134 -0.08868311 0 0 Z " fill="#23447A" transform="translate(99.57666015625,93.659423828125)"/>
<path d="M0 0 C10.74016671 8.47260287 16.37200616 20.61543727 18.28914547 34.02199459 C18.88670062 39.18958601 19.13930776 44.25779455 19.11352539 49.45727539 C19.11367142 50.24862885 19.11381744 51.0399823 19.1139679 51.85531616 C19.11327869 54.4361254 19.10553343 57.01685983 19.09765625 59.59765625 C19.09578854 61.40083273 19.0943663 63.20400972 19.09336853 65.00718689 C19.08957117 69.72697376 19.07976496 74.44672931 19.06866455 79.16650391 C19.05839031 83.99315975 19.05385808 88.81982072 19.04882812 93.64648438 C19.03813991 103.09767215 19.02056597 112.54882855 19 122 C9.76 122 0.52 122 -9 122 C-9.029729 118.57971436 -9.029729 118.57971436 -9.06005859 115.09033203 C-9.12719477 107.52661249 -9.20482993 99.96302635 -9.28752708 92.39946175 C-9.33731037 87.81711942 -9.3836409 83.23479815 -9.421875 78.65234375 C-9.45895615 74.22371031 -9.50537565 69.79526124 -9.55806351 65.36678696 C-9.57648691 63.68368667 -9.59163851 62.00054704 -9.60334396 60.31738663 C-9.69744209 40.51307187 -9.69744209 40.51307187 -18.49609375 23.1796875 C-24.99305761 16.97874837 -33.20457623 14.78900626 -42 14.5 C-49.80118483 14.74806399 -56.99725443 16.52559461 -63.375 21.1875 C-70.58796675 28.91567866 -73.28833817 37.84809424 -73.31884766 48.32202148 C-73.32889328 49.12283646 -73.3389389 49.92365143 -73.34928894 50.74873352 C-73.3799657 53.37284687 -73.39711258 55.99685894 -73.4140625 58.62109375 C-73.43278665 60.44955813 -73.45236099 62.27801398 -73.4727478 64.10646057 C-73.52394329 68.90183471 -73.56363617 73.69723682 -73.60089111 78.49273682 C-73.64100987 83.39301401 -73.69206621 88.29317609 -73.7421875 93.19335938 C-73.83879778 102.79549985 -73.92223825 112.39768836 -74 122 C-83.57 122 -93.14 122 -103 122 C-103 79.1 -103 36.2 -103 -8 C-93.43 -8 -83.86 -8 -74 -8 C-73.67 -4.37 -73.34 -0.74 -73 3 C-71.5975 1.948125 -70.195 0.89625 -68.75 -0.1875 C-48.1335432 -14.64541351 -20.76842139 -13.55527373 0 0 Z " fill="#040707" transform="translate(782,60)"/>
<path d="M0 0 C8.41104369 6.88311159 13.04900381 15.3582026 15 26 C15 27.98 15 29.96 15 32 C5.76 32 -3.48 32 -13 32 C-14.32 28.7 -15.64 25.4 -17 22 C-21.91502132 16.4998571 -28.13278111 14.60529298 -35.29296875 13.71484375 C-42.44214791 13.42381522 -49.22068398 15.01477427 -55.0625 19.1875 C-57.55131663 22.80029833 -58.396359 25.62281805 -58 30 C-55.34836962 36.43967378 -50.09103591 38.4477685 -44 41 C-37.92635916 43.0223996 -31.77035253 44.75157195 -25.60595703 46.47412109 C-11.49977844 50.4421901 4.28357545 55.13853132 12.8984375 67.921875 C17.40452195 76.42271517 18.25953236 85.7883244 15.875 95 C12.64097987 104.70206039 6.35465001 112.29396006 -2.46484375 117.4375 C-18.90860457 125.5507212 -39.59130799 126.77062316 -57 121 C-71.45504451 115.37254403 -81.59419797 107.52744389 -88 93 C-89.49882852 88.83361359 -89 85.84096029 -89 81 C-79.43 81 -69.86 81 -60 81 C-59.01 83.64 -58.02 86.28 -57 89 C-53.23980309 94.92515876 -48.83958728 97.45305396 -42 99 C-33.05461992 99.88819377 -23.80516638 100.10337802 -16 95 C-12.97666944 91.76071726 -12.1369244 89.85197403 -11.4375 85.5 C-12.12286994 81.23547592 -13.91033046 78.87247046 -17 76 C-20.05676563 74.27519432 -20.05676563 74.27519432 -23.625 73.125 C-24.29450684 72.88579834 -24.96401367 72.64659668 -25.65380859 72.40014648 C-31.3916705 70.40785084 -37.22752339 68.75937518 -43.06445312 67.08569336 C-75.44074478 57.78172748 -75.44074478 57.78172748 -84.43359375 43.765625 C-88.56991898 35.23534874 -88.61376636 23.53975977 -85.5625 14.625 C-80.12008575 3.42002948 -71.24341056 -2.48759443 -60 -7 C-58.65228516 -7.54140625 -58.65228516 -7.54140625 -57.27734375 -8.09375 C-39.0682371 -13.88633768 -15.37718524 -11.55294613 0 0 Z " fill="#040707" transform="translate(1078,60)"/>
<path d="M0 0 C0 7.59 0 15.18 0 23 C-3.22265625 23.68359375 -6.4453125 24.3671875 -9.66796875 25.05078125 C-14.6763047 26.47754049 -17.17217868 27.52161711 -19.76953125 32.16015625 C-21.2811338 36.20350691 -21.5493732 40.15646328 -21.6875 44.4375 C-21.790625 46.933125 -21.89375 49.42875 -22 52 C-14.08 52 -6.16 52 2 52 C2 59.59 2 67.18 2 75 C-5.92 75 -13.84 75 -22 75 C-22 110.31 -22 145.62 -22 182 C-31.57 182 -41.14 182 -51 182 C-51 146.69 -51 111.38 -51 75 C-55.95 75 -60.9 75 -66 75 C-66 67.41 -66 59.82 -66 52 C-61.05 52 -56.1 52 -51 52 C-51.04125 49.9375 -51.0825 47.875 -51.125 45.75 C-51.07464474 33.23671755 -49.4455601 21.85552637 -41.25 11.8671875 C-30.06416041 1.1008169 -14.70600102 0 0 0 Z " fill="#040707" transform="translate(1177,0)"/>
<path d="M0 0 C0 9.24 0 18.48 0 28 C-2.76375 28.2475 -5.5275 28.495 -8.375 28.75 C-16.80436981 29.62722363 -24.11272665 30.87328013 -30.875 36.3125 C-39.88233346 47.70412761 -39.31422987 60.55644251 -39.4140625 74.48046875 C-39.4328093 76.14627504 -39.45238522 77.81207218 -39.4727478 79.4778595 C-39.52370451 83.8260047 -39.56352339 88.17418056 -39.60089111 92.52246094 C-39.64116161 96.97403317 -39.69214785 101.42548188 -39.7421875 105.87695312 C-39.83851411 114.58455655 -39.92206237 123.29221256 -40 132 C-49.24 132 -58.48 132 -68 132 C-68 89.1 -68 46.2 -68 2 C-58.76 2 -49.52 2 -40 2 C-39.67 6.95 -39.34 11.9 -39 17 C-38.071875 15.7315625 -38.071875 15.7315625 -37.125 14.4375 C-27.22033591 2.73450305 -14.77849098 0 0 0 Z " fill="#040707" transform="translate(1333,50)"/>
<path d="M0 0 C9.24 0 18.48 0 28 0 C28 42.9 28 85.8 28 130 C18.76 130 9.52 130 0 130 C0 87.1 0 44.2 0 0 Z " fill="#040707" transform="translate(1202,52)"/>
<path d="M0 0 C9.24 0 18.48 0 28 0 C28 42.9 28 85.8 28 130 C18.76 130 9.52 130 0 130 C0 87.1 0 44.2 0 0 Z " fill="#040707" transform="translate(617,52)"/>
<path d="M0 0 C4.53683709 2.31794733 6.97756804 5.71909069 8.7265625 10.3515625 C10.24664416 16.63456669 9.76899774 21.57534486 6.7265625 27.3515625 C3.53240226 31.22213315 -0.41311832 33.26047044 -5.2734375 34.3515625 C-10.75777919 34.85013902 -14.46752378 34.06035023 -19.2734375 31.3515625 C-23.96069648 26.89603318 -26.39162951 23.18758061 -26.5859375 16.6015625 C-26.52425005 11.31186351 -25.41410471 8.59570737 -22.2734375 4.3515625 C-15.85742297 -1.45340303 -8.41465996 -2.40005765 0 0 Z " fill="#040707" transform="translate(639.2734375,1.6484375)"/>
<path d="M0 0 C4.50665768 2.13473258 7.1741532 4.91822129 10 9 C11.78793044 14.36379133 11.69055197 19.88772338 9.9375 25.25 C6.64193552 29.92757539 2.8017385 33.98355369 -3 35 C-8.49129081 35.41443704 -12.14211765 34.60886274 -17 32 C-21.06385768 28.47799001 -23.68813045 25.60374807 -24.3359375 20.1953125 C-24.41525118 13.96125735 -24.43705771 9.79681914 -20 5 C-13.5891157 -0.64768379 -8.40659006 -0.73724054 0 0 Z " fill="#040707" transform="translate(1223,1)"/>
</svg>
